<svg width="24" height="24" viewBox="0 0 24 24" fill="none" xmlns="http://www.w3.org/2000/svg">
<mask id="mask0_21_748" style="mask-type:alpha" maskUnits="userSpaceOnUse" x="2" y="2" width="19" height="20">
<path fill-rule="evenodd" clip-rule="evenodd" d="M3.36434 6.50249C2.9652 6.73251 2.71924 7.15812 2.71924 7.61879L2.71924 16.3577C2.71924 16.8174 2.9641 17.2422 3.36183 17.4726L10.878 21.8265C11.2771 22.0577 11.7695 22.0579 12.1688 21.8269L19.7912 17.4188C20.1894 17.1885 20.4346 16.7634 20.4346 16.3034L20.4346 7.69752C20.4346 7.23755 20.1894 6.81247 19.7912 6.5822L12.1671 2.17308C11.7687 1.94266 11.2776 1.94228 10.8788 2.17209L3.36434 6.50249ZM7.01458 8.90747L11.0945 6.55709C11.3599 6.4042 11.6866 6.4042 11.952 6.55709L12.9179 7.11353C13.2045 7.27866 13.2047 7.69222 12.9182 7.8576L9.05388 10.0884C8.7881 10.2418 8.62437 10.5254 8.62437 10.8322L8.62437 11.787C8.62437 12.1191 8.98502 12.3255 9.27132 12.1574L14.9593 8.81677C15.2247 8.66091 15.5532 8.65896 15.8205 8.81166L16.083 8.96167C16.3506 9.11459 16.5158 9.39919 16.5158 9.70742L16.5158 9.8925C16.5158 10.2002 16.3511 10.4844 16.0842 10.6375L10.2505 13.984C9.96053 14.1504 9.96341 14.5696 10.2556 14.732L11.103 15.2027C11.3641 15.3478 11.6818 15.3468 11.942 15.2001L15.9291 12.9521C16.2153 12.7906 16.5694 12.9975 16.5694 13.3262L16.5694 14.4022C16.5694 14.7097 16.405 14.9938 16.1384 15.147L11.9517 17.5521C11.6864 17.7045 11.3602 17.7043 11.0951 17.5516L7.01458 15.2009C6.74843 15.0475 6.58441 14.7638 6.58441 14.4566L6.58441 9.65173C6.58441 9.34458 6.74843 9.0608 7.01458 8.90747Z" fill="black"/>
</mask>
<g mask="url(#mask0_21_748)">
<rect width="10.8421" height="10.5602" transform="matrix(3.78121e-05 1 0.866007 0.500032 2.71631 6.27643)" fill="#F0F1F3"/>
<rect width="10.8455" height="11.3112" transform="matrix(0.866007 -0.500033 3.76274e-05 -1 11.4741 23.3381)" fill="#FBFBFB"/>
<rect width="10.883" height="10.4735" transform="matrix(-0.866045 -0.499967 -0.866044 0.499967 20.9126 6.80737)" fill="white"/>
</g>
</svg>
